<?xml version="1.0" encoding="UTF-8"?>
<svg id="Layer_1" data-name="Layer 1" xmlns="http://www.w3.org/2000/svg" viewBox="0 0 268.71 269.14">
  <defs>
    <style>
      .cls-1 {
        fill: #05cc5a;
      }
    </style>
  </defs>
  <path class="cls-1" d="m268.71,135.35C268.71,60.6,208.55,0,134.35,0S0,60.6,0,135.35c0,67.72,49.37,123.83,113.82,133.78l3.11-13.66.26-1.15.29-1.27.3-1.32.31-1.38.97-4.29,6.25-27.46c-18.37-4.12-32.1-20.5-32.1-40.11,0-22.72,18.42-41.14,41.14-41.14s41.14,18.42,41.14,41.14c0,19.61-13.74,35.99-32.1,40.11l6.24,27.46.97,4.29.31,1.38.3,1.32.29,1.27.26,1.15,3.11,13.66c64.46-9.96,113.82-66.06,113.82-133.78Zm-73.09,94.74c13.25-14.65,21.35-34.05,21.35-55.36,0-45.63-36.99-82.61-82.61-82.61s-82.61,36.99-82.61,82.61c0,20.69,7.62,39.58,20.19,54.07-23.03-17.11-37.82-41.49-37.82-73.24,0-55.37,44.88-100.25,100.25-100.25s100.25,44.88,100.25,100.25c0,32.28-15.29,57.28-38.99,74.53Z"/>
</svg>