<svg width="242" height="47" viewBox="0 0 242 47" fill="none" xmlns="http://www.w3.org/2000/svg">
<g clip-path="url(#clip0_4_281)">
<path d="M15.0255 30.0511C23.3239 30.0511 30.0511 23.3239 30.0511 15.0255C30.0511 6.72717 23.3239 0 15.0255 0C6.72717 0 0 6.72717 0 15.0255C0 23.3239 6.72717 30.0511 15.0255 30.0511Z" fill="#00B2FC"/>
<path d="M17.1659 16.1001L16.1145 17.1515L23.419 24.456L24.4704 23.4046L17.1659 16.1001Z" fill="white"/>
<path d="M6.61823 5.58747L5.56683 6.63887L12.8713 13.9433L13.9227 12.8919L6.61823 5.58747Z" fill="white"/>
<path d="M23.4194 5.56059L16.1201 12.8701L17.1722 13.9208L24.4715 6.61126L23.4194 5.56059Z" fill="white"/>
<path d="M12.865 16.1083L5.56561 23.4178L6.61775 24.4685L13.9171 17.1589L12.865 16.1083Z" fill="white"/>
<path d="M129.1 15.4168C129.1 19.4602 132.778 22.747 137.317 22.747H149.812V14.5038H140.421V16.1212H147.725V21.1297H137.343C133.821 21.1297 131.187 18.6776 131.187 15.4168C131.187 12.1561 133.847 9.704 137.343 9.704H149.838V8.08667H137.343C132.804 8.08667 129.126 11.3735 129.126 15.4168H129.1Z" fill="black"/>
<path d="M201.932 22.747H220.401V21.1297H204.019V9.704H220.401V8.08667H201.932V22.747Z" fill="black"/>
<path d="M219.931 14.5038H208.297V16.1212H219.931V14.5038Z" fill="black"/>
<path d="M162.49 7.87798C161.916 7.87798 161.368 8.19101 161.003 8.71273L151.064 22.7209H153.412L162.49 9.8866L170.446 21.0775H159.281V22.6948H173.942L163.977 8.66056C163.612 8.13884 163.064 7.82581 162.49 7.82581V7.87798Z" fill="black"/>
<path d="M193.976 7.87798C193.402 7.87798 192.958 8.16492 192.724 8.68664L187.272 20.6601L181.82 8.68664C181.559 8.16492 181.115 7.87798 180.541 7.87798C179.967 7.87798 179.498 8.26927 179.289 8.92142L174.437 22.7209H176.524L180.802 10.5127L185.915 22.0688C186.228 22.7992 186.645 22.9296 187.219 22.9296C187.767 22.9296 188.211 22.7731 188.524 22.0688L193.61 10.5127L197.862 22.7209H200.002L195.228 8.92142C195.045 8.45187 194.68 7.87798 193.95 7.87798H193.976Z" fill="black"/>
<path d="M236.392 14.5038H228.748C225.227 14.5038 224.835 12.8343 224.835 12.1039C224.835 11.3735 225.227 9.704 228.748 9.704H241.009V8.08667H228.748C225.07 8.08667 222.775 9.59966 222.775 11.9996C222.775 14.6082 224.809 16.0951 228.357 16.0951H236C237.878 16.0951 239.913 16.7472 239.913 18.5993C239.913 20.1645 238.452 21.1036 236 21.1036H223.009V22.7209H236C239.678 22.7209 241.974 21.1819 241.974 18.7037C241.974 16.0168 239.939 14.4777 236.392 14.4777V14.5038Z" fill="black"/>
<path d="M75.0234 7.72147H63.1282V10.2779H74.1626C77.5016 10.2779 79.0406 11.0866 79.0406 12.9126C79.0406 14.7386 77.5016 15.5473 74.1626 15.5473H63.1282V22.7731H66.1542V18.1037H75.0234C79.3537 18.1037 82.0145 16.1473 82.0145 12.9387C82.0145 9.73009 79.3276 7.77364 75.0234 7.77364V7.72147Z" fill="black"/>
<path d="M87.1273 7.72147H84.1274V22.747H101.553V20.1906H87.1273V7.72147Z" fill="black"/>
<path d="M114.179 7.53886C113.448 7.53886 112.796 7.90407 112.352 8.53013L102.257 22.747H105.857L114.179 10.9561L120.7 20.1906H110.605V22.747H126.1L116.005 8.53013C115.561 7.90407 114.883 7.53886 114.179 7.53886Z" fill="black"/>
<path d="M61.3022 7.72147H57.1806L50.4243 13.3039L43.6941 7.72147H39.5725L48.3635 15.0256L39.0508 22.747H43.1724L50.4243 16.7211L57.6762 22.747H61.8239L52.4851 15.0256L61.3022 7.72147Z" fill="black"/>
<path d="M47.6331 39.7812H40.2247L38.8943 42.8071H37.8508L43.4854 30.2337H44.3984L50.033 42.8071H48.9896L47.6592 39.7812H47.6331ZM47.2418 38.8942L43.9028 31.3554L40.5899 38.8942H47.2418Z" fill="black"/>
<path d="M51.1286 30.6772C51.1286 30.3119 51.4155 30.0511 51.7547 30.0511C52.0938 30.0511 52.4068 30.3119 52.4068 30.6772C52.4068 31.0424 52.1199 31.3032 51.7547 31.3032C51.3895 31.3032 51.1286 31.0163 51.1286 30.6772ZM51.2851 32.8684H52.1981V42.8071H51.2851V32.8684Z" fill="black"/>
<path d="M54.8589 32.8684H55.798V34.7727C56.2415 33.4944 57.2849 32.4771 59.5022 32.8684L59.3718 33.7814C56.7893 33.3118 55.8241 34.9031 55.8241 37.4856V42.7811H54.885V32.8423L54.8589 32.8684Z" fill="black"/>
<path d="M59.7892 37.8508C59.7892 34.3031 62.1108 32.6858 64.5368 32.6858C66.3368 32.6858 67.928 33.5466 68.5541 35.4248V29.6337H69.4932V42.7811H68.5541V40.3029C67.9019 42.155 66.3368 43.0158 64.5629 43.0158C62.1108 43.0158 59.7631 41.3985 59.7631 37.8247L59.7892 37.8508ZM68.5802 37.8508C68.5802 35.2422 67.015 33.5727 64.6412 33.5727C62.2674 33.5727 60.7283 35.19 60.7283 37.8508C60.7283 40.5116 62.2673 42.155 64.6933 42.155C67.1193 42.155 68.6063 40.5116 68.6063 37.8508H68.5802Z" fill="black"/>
<path d="M72.2322 32.8684H73.1713V34.7727C73.6148 33.4944 74.6582 32.4771 76.8755 32.8684L76.7451 33.7814C74.1626 33.3118 73.1974 34.9031 73.1974 37.4856V42.7811H72.2583V32.8423L72.2322 32.8684Z" fill="black"/>
<path d="M77.1364 37.8508C77.1364 34.277 79.5363 32.6858 81.9884 32.6858C84.4405 32.6858 86.8665 34.2509 86.8665 37.8508C86.8665 41.4507 84.4666 43.0419 82.0145 43.0419C79.5624 43.0419 77.1364 41.4507 77.1364 37.8508ZM85.9274 37.8508C85.9274 35.2422 84.3361 33.5727 81.9884 33.5727C79.6406 33.5727 78.0755 35.19 78.0755 37.8508C78.0755 40.5116 79.6146 42.155 82.0145 42.155C84.4144 42.155 85.9274 40.5116 85.9274 37.8508Z" fill="black"/>
<path d="M89.1099 32.8684H90.049V35.3466C90.7011 33.4944 92.2402 32.6336 94.0662 32.6336C96.4661 32.6336 98.8139 34.2249 98.8139 37.8247C98.8139 41.4246 96.44 42.9898 94.014 42.9898C92.2141 42.9898 90.675 42.1028 90.0229 40.2768V46.0418H89.0838V32.8945L89.1099 32.8684ZM97.9008 37.8247C97.9008 35.1639 96.3878 33.5205 93.9879 33.5205C91.588 33.5205 90.049 35.1379 90.049 37.8247C90.049 40.5116 91.588 42.1028 93.9619 42.1028C96.3357 42.1028 97.9008 40.4594 97.9008 37.8247Z" fill="black"/>
</g>
<defs>
<clipPath id="clip0_4_281">
<rect width="242" height="46.0157" fill="white"/>
</clipPath>
</defs>
</svg>
