<svg width="242" height="31" viewBox="0 0 242 31" fill="none" xmlns="http://www.w3.org/2000/svg">
<g clip-path="url(#clip0_4_301)">
<path d="M15.0255 30.0511C23.3239 30.0511 30.0511 23.3239 30.0511 15.0255C30.0511 6.72717 23.3239 0 15.0255 0C6.72717 0 0 6.72717 0 15.0255C0 23.3239 6.72717 30.0511 15.0255 30.0511Z" fill="#00B2FC"/>
<path d="M17.1659 16.1001L16.1145 17.1516L23.419 24.456L24.4704 23.4046L17.1659 16.1001Z" fill="white"/>
<path d="M6.61823 5.58746L5.56683 6.63885L12.8713 13.9433L13.9227 12.8919L6.61823 5.58746Z" fill="white"/>
<path d="M23.4194 5.56062L16.1201 12.8702L17.1722 13.9208L24.4715 6.61129L23.4194 5.56062Z" fill="white"/>
<path d="M12.865 16.1083L5.56561 23.4178L6.61775 24.4685L13.9171 17.159L12.865 16.1083Z" fill="white"/>
<path d="M129.1 15.4168C129.1 19.4602 132.778 22.747 137.317 22.747H149.812V14.5038H140.421V16.1212H147.725V21.1297H137.343C133.821 21.1297 131.187 18.6776 131.187 15.4168C131.187 12.1561 133.847 9.704 137.343 9.704H149.838V8.08667H137.343C132.804 8.08667 129.126 11.3735 129.126 15.4168H129.1Z" fill="black"/>
<path d="M201.932 22.747H220.401V21.1297H204.019V9.704H220.401V8.08667H201.932V22.747Z" fill="black"/>
<path d="M219.931 14.5038H208.297V16.1212H219.931V14.5038Z" fill="black"/>
<path d="M162.49 7.87798C161.916 7.87798 161.368 8.19101 161.003 8.71273L151.064 22.7209H153.412L162.49 9.8866L170.446 21.0775H159.281V22.6948H173.942L163.977 8.66056C163.612 8.13884 163.064 7.82581 162.49 7.82581V7.87798Z" fill="black"/>
<path d="M193.976 7.87799C193.402 7.87799 192.958 8.16494 192.724 8.68666L187.272 20.6601L181.82 8.68666C181.559 8.16494 181.115 7.87799 180.541 7.87799C179.967 7.87799 179.498 8.26928 179.289 8.92143L174.437 22.7209H176.524L180.802 10.5127L185.915 22.0688C186.228 22.7992 186.645 22.9296 187.219 22.9296C187.767 22.9296 188.211 22.7731 188.524 22.0688L193.61 10.5127L197.862 22.7209H200.002L195.228 8.92143C195.045 8.45188 194.68 7.87799 193.95 7.87799H193.976Z" fill="black"/>
<path d="M236.392 14.5038H228.748C225.227 14.5038 224.835 12.8343 224.835 12.1039C224.835 11.3735 225.227 9.704 228.748 9.704H241.009V8.08667H228.748C225.07 8.08667 222.775 9.59966 222.775 11.9996C222.775 14.6082 224.809 16.0951 228.357 16.0951H236C237.878 16.0951 239.913 16.7472 239.913 18.5993C239.913 20.1645 238.452 21.1036 236 21.1036H223.009V22.7209H236C239.678 22.7209 241.974 21.1819 241.974 18.7037C241.974 16.0168 239.939 14.4777 236.392 14.4777V14.5038Z" fill="black"/>
<path d="M75.0234 7.7215H63.1282V10.2779H74.1626C77.5016 10.2779 79.0406 11.0866 79.0406 12.9126C79.0406 14.7386 77.5016 15.5473 74.1626 15.5473H63.1282V22.7731H66.1542V18.1037H75.0234C79.3537 18.1037 82.0145 16.1473 82.0145 12.9387C82.0145 9.73012 79.3276 7.77367 75.0234 7.77367V7.7215Z" fill="black"/>
<path d="M87.1273 7.7215H84.1274V22.747H101.553V20.1906H87.1273V7.7215Z" fill="black"/>
<path d="M114.179 7.53888C113.448 7.53888 112.796 7.90408 112.352 8.53015L102.257 22.747H105.857L114.179 10.9561L120.7 20.1906H110.605V22.747H126.1L116.005 8.53015C115.561 7.90408 114.883 7.53888 114.179 7.53888Z" fill="black"/>
<path d="M61.3022 7.7215H57.1806L50.4243 13.3039L43.6941 7.7215H39.5725L48.3635 15.0256L39.0508 22.747H43.1724L50.4243 16.7212L57.6762 22.747H61.8239L52.4851 15.0256L61.3022 7.7215Z" fill="black"/>
</g>
<defs>
<clipPath id="clip0_4_301">
<rect width="242" height="30.025" fill="white"/>
</clipPath>
</defs>
</svg>
