<svg width="233" height="30" viewBox="0 0 233 30" fill="none" xmlns="http://www.w3.org/2000/svg">
<g clip-path="url(#clip0_1_3)">
<path d="M132.146 7.71426H141.702V8.80849H133.277V14.5167H141.337V15.5744H133.277V21.5927H141.702V22.6869H132.146V7.71426Z" fill="black"/>
<path d="M148.723 14.772L143.343 7.71426H144.748L149.435 13.8419L154.067 7.71426H155.471L150.109 14.772L156.128 22.7051H154.742L149.416 15.7021L144.091 22.7051H142.687L148.705 14.772H148.723Z" fill="black"/>
<path d="M157.751 7.71426H161.38C165.812 7.71426 168.365 8.66259 168.365 12.4377C168.365 16.2127 165.812 17.1793 161.416 17.1793H158.918V22.7051H157.787V7.71426H157.751ZM161.453 16.0851C165.027 16.0851 167.216 15.5015 167.216 12.4377C167.216 9.37384 165.046 8.79025 161.453 8.79025H158.881V16.0851H161.453Z" fill="black"/>
<path d="M170.699 7.71426H171.83V21.6109H179.289V22.7051H170.699V7.71426Z" fill="black"/>
<path d="M179.307 15.228C179.307 9.88449 182.626 7.55014 186.328 7.55014C190.03 7.55014 193.331 9.88449 193.331 15.228C193.331 20.5714 190.012 22.924 186.292 22.924C182.571 22.924 179.307 20.6626 179.307 15.228ZM192.182 15.228C192.182 11.1246 189.921 8.64437 186.328 8.64437C182.736 8.64437 180.419 11.1064 180.419 15.228C180.419 19.3495 182.59 21.8298 186.274 21.8298C189.957 21.8298 192.182 19.4042 192.182 15.228Z" fill="black"/>
<path d="M205.678 22.7051L201.392 17.0152C200.954 17.0334 200.498 17.0517 200.024 17.0517H197.307V22.7051H196.176V7.71426H200.043C204.419 7.71426 206.973 8.66259 206.973 12.3647C206.973 15.2462 205.404 16.4681 202.669 16.8693L207.155 22.6869H205.66L205.678 22.7051ZM200.061 15.9939C203.635 15.9939 205.842 15.4468 205.842 12.383C205.842 9.31913 203.653 8.77201 200.061 8.77201H197.307V15.9757H200.061V15.9939Z" fill="black"/>
<path d="M209.708 7.71426H219.264V8.80849H210.839V14.5167H218.9V15.5744H210.839V21.5927H219.264V22.6869H209.708V7.71426Z" fill="black"/>
<path d="M231.447 22.7051L227.161 17.0152C226.723 17.0334 226.267 17.0517 225.793 17.0517H223.076V22.7051H221.945V7.71426H225.812C230.188 7.71426 232.742 8.66259 232.742 12.3647C232.742 15.2462 231.173 16.4681 228.438 16.8693L232.924 22.6869H231.429L231.447 22.7051ZM225.83 15.9939C229.404 15.9939 231.611 15.4468 231.611 12.383C231.611 9.31913 229.422 8.77201 225.83 8.77201H223.076V15.9757H225.83V15.9939Z" fill="black"/>
<path d="M14.9909 29.9818C23.2701 29.9818 29.9818 23.2701 29.9818 14.9909C29.9818 6.71165 23.2701 0 14.9909 0C6.71165 0 0 6.71165 0 14.9909C0 23.2701 6.71165 29.9818 14.9909 29.9818Z" fill="#00B2FC"/>
<path d="M17.1442 16.0832L16.0868 17.1407L23.3728 24.4266L24.4302 23.3692L17.1442 16.0832Z" fill="white"/>
<path d="M6.6214 5.56042L5.56396 6.61786L12.85 13.9039L13.9074 12.8464L6.6214 5.56042Z" fill="white"/>
<path d="M23.3646 5.57458L16.0837 12.8657L17.1419 13.9224L24.4228 6.63128L23.3646 5.57458Z" fill="white"/>
<path d="M12.8522 16.0974L5.57129 23.3885L6.62946 24.4452L13.9104 17.1541L12.8522 16.0974Z" fill="white"/>
<path d="M74.9179 7.71429H63.0455V10.2675H74.079C77.3981 10.2675 78.9483 11.0699 78.9483 12.8936C78.9483 14.7173 77.3981 15.5198 74.079 15.5198H63.0455V22.7234H66.0547V18.073H74.9179C79.2218 18.073 81.9027 16.1216 81.9027 12.9119C81.9027 9.70214 79.2218 7.75077 74.9179 7.75077V7.71429Z" fill="black"/>
<path d="M87.0273 7.71429H84.0182V22.7052H101.416V20.152H87.0273V7.71429Z" fill="black"/>
<path d="M110.462 20.1884V22.7052H125.945L115.878 8.51671C115.441 7.87841 114.766 7.51367 114.055 7.51367C113.343 7.51367 112.669 7.87841 112.231 8.51671L102.164 22.7052H105.757L114.073 10.9422L120.584 20.1702H110.498L110.462 20.1884Z" fill="black"/>
<path d="M61.2218 7.71429H57.1003L50.3708 13.2948L43.6231 7.71429H39.5197L48.31 14.9909L38.9908 22.7052H43.1307L50.3708 16.7052L57.6109 22.7052H61.7325L52.4316 14.9909L61.2218 7.71429Z" fill="black"/>
</g>
<defs>
<clipPath id="clip0_1_3">
<rect width="232.942" height="30" fill="white"/>
</clipPath>
</defs>
</svg>
