<svg width="222" height="30" viewBox="0 0 222 30" fill="none" xmlns="http://www.w3.org/2000/svg">
<g clip-path="url(#clip0_1_72)">
<path d="M74.9179 7.71429H63.0456V10.2675H74.079C77.3982 10.2675 78.9483 11.0699 78.9483 12.8936C78.9483 14.7173 77.3982 15.5198 74.079 15.5198H63.0456V22.7234H66.0547V18.073H74.9179C79.2219 18.073 81.9027 16.1216 81.9027 12.9119C81.9027 9.70214 79.2219 7.75077 74.9179 7.75077V7.71429Z" fill="black"/>
<path d="M87.0274 7.71429H84.0182V22.7052H101.416V20.152H87.0274V7.71429Z" fill="black"/>
<path d="M115.878 8.51671C115.441 7.87841 114.766 7.51367 114.055 7.51367C113.343 7.51367 112.669 7.87841 112.231 8.51671L102.164 22.7052H105.757L114.073 10.9422L120.584 20.1702H110.498V22.7234H125.982L115.915 8.53495L115.878 8.51671Z" fill="black"/>
<path d="M143.617 19.1125H134.772L133.185 22.7234H131.945L138.656 7.73251H139.732L146.462 22.7234H145.222L143.635 19.1125H143.617ZM143.161 18.0547L139.185 9.06382L135.228 18.0547H143.161Z" fill="black"/>
<path d="M147.884 7.71426H149.015V22.7051H147.884V7.71426Z" fill="black"/>
<path d="M161.818 22.7051L157.532 17.0152C157.094 17.0334 156.638 17.0517 156.164 17.0517H153.447V22.7051H152.316V7.71426H156.182C160.541 7.71426 163.112 8.66259 163.112 12.3647C163.112 15.2462 161.544 16.4681 158.809 16.8693L163.295 22.6869H161.799L161.818 22.7051ZM156.201 15.9939C159.775 15.9939 161.982 15.4468 161.982 12.383C161.982 9.31913 159.793 8.77201 156.201 8.77201H153.447V15.9757H156.201V15.9939Z" fill="black"/>
<path d="M165.848 7.71426H169.167C175.277 7.71426 177.848 9.95742 177.848 15.1915C177.848 20.4255 175.277 22.7051 169.167 22.7051H165.848V7.71426ZM169.185 21.6109C174.401 21.6109 176.699 19.7507 176.699 15.1915C176.699 10.6322 174.401 8.80849 169.167 8.80849H166.997V21.6109H169.185Z" fill="black"/>
<path d="M190.195 22.7051L185.909 17.0152C185.471 17.0334 185.015 17.0517 184.541 17.0517H181.824V22.7051H180.693V7.71426H184.559C188.936 7.71426 191.489 8.66259 191.489 12.3647C191.489 15.2462 189.921 16.4681 187.185 16.8693L191.672 22.6869H190.176L190.195 22.7051ZM184.577 15.9939C188.152 15.9939 190.359 15.4468 190.359 12.383C190.359 9.31913 188.17 8.77201 184.577 8.77201H181.824V15.9757H184.577V15.9939Z" fill="black"/>
<path d="M193.805 15.228C193.805 9.88449 197.125 7.55014 200.827 7.55014C204.529 7.55014 207.83 9.88449 207.83 15.228C207.83 20.5714 204.511 22.924 200.79 22.924C197.07 22.924 193.805 20.6626 193.805 15.228ZM206.681 15.228C206.681 11.1246 204.419 8.64437 200.827 8.64437C197.234 8.64437 194.918 11.1064 194.918 15.228C194.918 19.3495 197.088 21.8298 200.772 21.8298C204.456 21.8298 206.681 19.4042 206.681 15.228Z" fill="black"/>
<path d="M210.693 7.71426H214.322C218.754 7.71426 221.307 8.66259 221.307 12.4377C221.307 16.2127 218.754 17.1793 214.359 17.1793H211.86V22.7051H210.729V7.71426H210.693ZM214.395 16.0851C217.97 16.0851 220.158 15.5015 220.158 12.4377C220.158 9.37384 217.988 8.79025 214.395 8.79025H211.824V16.0851H214.395Z" fill="black"/>
<path d="M14.9909 29.9818C23.2701 29.9818 29.9818 23.2701 29.9818 14.9909C29.9818 6.71165 23.2701 0 14.9909 0C6.71165 0 0 6.71165 0 14.9909C0 23.2701 6.71165 29.9818 14.9909 29.9818Z" fill="#00B2FC"/>
<path d="M17.1442 16.0832L16.0868 17.1407L23.3728 24.4266L24.4302 23.3692L17.1442 16.0832Z" fill="white"/>
<path d="M6.6214 5.56042L5.56396 6.61786L12.85 13.9039L13.9074 12.8464L6.6214 5.56042Z" fill="white"/>
<path d="M23.3646 5.57458L16.0837 12.8657L17.1419 13.9224L24.4228 6.63128L23.3646 5.57458Z" fill="white"/>
<path d="M12.8522 16.0974L5.57129 23.3885L6.62946 24.4452L13.9104 17.1541L12.8522 16.0974Z" fill="white"/>
<path d="M52.4316 14.9909L61.2218 7.71429H57.1003L50.3708 13.2948L43.6231 7.71429H39.5197L48.31 14.9909L38.9908 22.7052H43.1307L50.3708 16.7052L57.6109 22.7052H61.7325L56.2978 18.2006L52.4316 14.9909Z" fill="black"/>
<path d="M74.9179 7.71429H63.0455V10.2675H74.079C77.3981 10.2675 78.9483 11.0699 78.9483 12.8936C78.9483 14.7173 77.3981 15.5198 74.079 15.5198H63.0455V22.7234H66.0547V18.073H74.9179C79.2218 18.073 81.9027 16.1216 81.9027 12.9119C81.9027 9.70214 79.2218 7.75077 74.9179 7.75077V7.71429Z" fill="black"/>
<path d="M87.0273 7.71429H84.0182V22.7052H101.416V20.152H87.0273V7.71429Z" fill="black"/>
<path d="M110.462 20.1884V22.7052H125.945L115.878 8.51671C115.441 7.87841 114.766 7.51367 114.055 7.51367C113.343 7.51367 112.669 7.87841 112.231 8.51671L102.164 22.7052H105.757L114.073 10.9422L120.584 20.1702H110.498L110.462 20.1884Z" fill="black"/>
</g>
<defs>
<clipPath id="clip0_1_72">
<rect width="221.289" height="30" fill="white"/>
</clipPath>
</defs>
</svg>
