<svg width="215" height="30" viewBox="0 0 215 30" fill="none" xmlns="http://www.w3.org/2000/svg">
<g clip-path="url(#clip0_2_154)">
<path d="M129.392 7.71428H130.65L136.523 21.4103L142.413 7.71428H143.672L137.125 22.7052H135.866L129.356 7.71428H129.392Z" fill="black"/>
<path d="M145.112 7.71428H154.687V8.8085H146.261V14.5167H154.322V15.5745H146.261V21.5927H154.687V22.6869H145.112V7.71428Z" fill="black"/>
<path d="M155.927 19.4225L156.967 19.0942C157.787 20.8815 159.775 21.8845 162.237 21.8845C164.881 21.8845 166.742 20.6444 166.742 18.766C166.742 14.152 156.511 17.2158 156.511 11.4711C156.511 9.15501 158.772 7.51367 161.708 7.51367C164.644 7.51367 166.669 8.6079 167.653 10.7599L166.614 11.0699C165.793 9.37385 164.097 8.57142 161.726 8.57142C159.356 8.57142 157.623 9.70212 157.623 11.4711C157.623 16.158 167.836 12.9483 167.836 18.7842C167.836 21.2644 165.501 22.924 162.255 22.924C159.246 22.924 156.875 21.6656 155.927 19.4225Z" fill="black"/>
<path d="M173.343 8.8085H168.711V7.71428H179.106V8.8085H174.492V22.7052H173.362V8.8085H173.343Z" fill="black"/>
<path d="M181.349 7.71428H182.48V22.7052H181.349V7.71428Z" fill="black"/>
<path d="M185.781 7.71428H187.058L196.742 21.0456V7.71428H197.872V22.7052H196.669L186.894 9.26443V22.7052H185.763V7.71428H185.781Z" fill="black"/>
<path d="M200.736 15.1732C200.736 10.5957 203.562 7.49544 207.72 7.49544C210.438 7.49544 212.535 8.58966 213.72 10.8146L212.644 11.1611C211.568 9.41033 210 8.57142 207.739 8.57142C204.219 8.57142 201.884 11.1976 201.884 15.1732C201.884 19.1489 204.109 21.7933 207.684 21.7933C211.258 21.7933 213.356 19.6778 213.465 15.9392H207.775V14.8632H214.632V15.6839C214.632 20.1337 211.988 22.8693 207.684 22.8693C203.38 22.8693 200.772 19.8419 200.772 15.1732H200.736Z" fill="black"/>
<path d="M14.9909 29.9818C23.2701 29.9818 29.9818 23.2701 29.9818 14.9909C29.9818 6.71165 23.2701 0 14.9909 0C6.71165 0 0 6.71165 0 14.9909C0 23.2701 6.71165 29.9818 14.9909 29.9818Z" fill="#00B2FC"/>
<path d="M17.1442 16.0832L16.0868 17.1407L23.3728 24.4267L24.4302 23.3692L17.1442 16.0832Z" fill="white"/>
<path d="M6.6214 5.56044L5.56396 6.61787L12.85 13.9039L13.9074 12.8464L6.6214 5.56044Z" fill="white"/>
<path d="M23.3646 5.57458L16.0837 12.8657L17.1419 13.9224L24.4228 6.63128L23.3646 5.57458Z" fill="white"/>
<path d="M12.8522 16.0974L5.57129 23.3885L6.62946 24.4452L13.9104 17.1541L12.8522 16.0974Z" fill="white"/>
<path d="M74.9179 7.71429H63.0455V10.2675H74.079C77.3981 10.2675 78.9483 11.0699 78.9483 12.8936C78.9483 14.7173 77.3981 15.5198 74.079 15.5198H63.0455V22.7234H66.0547V18.0729H74.9179C79.2218 18.0729 81.9027 16.1216 81.9027 12.9119C81.9027 9.70213 79.2218 7.75076 74.9179 7.75076V7.71429Z" fill="black"/>
<path d="M87.0273 7.71429H84.0182V22.7052H101.416V20.152H87.0273V7.71429Z" fill="black"/>
<path d="M110.462 20.1884V22.7052H125.945L115.878 8.51672C115.441 7.87842 114.766 7.51368 114.055 7.51368C113.343 7.51368 112.669 7.87842 112.231 8.51672L102.164 22.7052H105.757L114.073 10.9423L120.584 20.1702H110.498L110.462 20.1884Z" fill="black"/>
<path d="M61.2218 7.71429H57.1003L50.3708 13.2948L43.6231 7.71429H39.5197L48.31 14.9909L38.9908 22.7052H43.1307L50.3708 16.7052L57.6109 22.7052H61.7325L52.4316 14.9909L61.2218 7.71429Z" fill="black"/>
</g>
<defs>
<clipPath id="clip0_2_154">
<rect width="214.614" height="30" fill="white"/>
</clipPath>
</defs>
</svg>
