<svg width="242" height="47" viewBox="0 0 242 47" fill="none" xmlns="http://www.w3.org/2000/svg">
<g clip-path="url(#clip0_6_532)">
<path d="M15.0255 30.0511C23.3239 30.0511 30.0511 23.3239 30.0511 15.0255C30.0511 6.72717 23.3239 0 15.0255 0C6.72717 0 0 6.72717 0 15.0255C0 23.3239 6.72717 30.0511 15.0255 30.0511Z" fill="#00B2FC"/>
<path d="M17.1659 16.1001L16.1145 17.1515L23.419 24.456L24.4704 23.4046L17.1659 16.1001Z" fill="white"/>
<path d="M6.6182 5.58746L5.5668 6.63885L12.8713 13.9433L13.9227 12.8919L6.6182 5.58746Z" fill="white"/>
<path d="M23.4194 5.56059L16.1201 12.8701L17.1722 13.9208L24.4715 6.61126L23.4194 5.56059Z" fill="white"/>
<path d="M12.865 16.1083L5.56561 23.4178L6.61775 24.4685L13.9171 17.1589L12.865 16.1083Z" fill="white"/>
<path d="M129.1 15.4168C129.1 19.4602 132.778 22.747 137.317 22.747H149.812V14.5038H140.421V16.1212H147.725V21.1297H137.343C133.821 21.1297 131.187 18.6776 131.187 15.4168C131.187 12.1561 133.847 9.704 137.343 9.704H149.838V8.08667H137.343C132.804 8.08667 129.126 11.3735 129.126 15.4168H129.1Z" fill="white"/>
<path d="M201.932 22.747H220.401V21.1297H204.019V9.704H220.401V8.08667H201.932V22.747Z" fill="white"/>
<path d="M219.931 14.5038H208.297V16.1211H219.931V14.5038Z" fill="white"/>
<path d="M162.49 7.87798C161.916 7.87798 161.368 8.19101 161.003 8.71273L151.064 22.7209H153.412L162.49 9.8866L170.446 21.0775H159.281V22.6948H173.942L163.977 8.66056C163.612 8.13884 163.064 7.82581 162.49 7.82581V7.87798Z" fill="white"/>
<path d="M193.976 7.87796C193.402 7.87796 192.958 8.16491 192.724 8.68663L187.272 20.6601L181.82 8.68663C181.559 8.16491 181.115 7.87796 180.541 7.87796C179.967 7.87796 179.498 8.26925 179.289 8.9214L174.437 22.7209H176.524L180.802 10.5126L185.915 22.0688C186.228 22.7992 186.645 22.9296 187.219 22.9296C187.767 22.9296 188.211 22.7731 188.524 22.0688L193.61 10.5126L197.862 22.7209H200.002L195.228 8.9214C195.045 8.45185 194.68 7.87796 193.95 7.87796H193.976Z" fill="white"/>
<path d="M236.392 14.5038H228.748C225.227 14.5038 224.835 12.8343 224.835 12.1039C224.835 11.3735 225.227 9.704 228.748 9.704H241.009V8.08667H228.748C225.07 8.08667 222.775 9.59966 222.775 11.9996C222.775 14.6082 224.809 16.0951 228.357 16.0951H236C237.878 16.0951 239.913 16.7472 239.913 18.5993C239.913 20.1645 238.452 21.1036 236 21.1036H223.009V22.7209H236C239.678 22.7209 241.974 21.1819 241.974 18.7037C241.974 16.0168 239.939 14.4777 236.392 14.4777V14.5038Z" fill="white"/>
<path d="M75.0234 7.72147H63.1282V10.2779H74.1626C77.5016 10.2779 79.0406 11.0866 79.0406 12.9126C79.0406 14.7386 77.5016 15.5473 74.1626 15.5473H63.1282V22.7731H66.1542V18.1037H75.0234C79.3537 18.1037 82.0145 16.1473 82.0145 12.9387C82.0145 9.73009 79.3276 7.77364 75.0234 7.77364V7.72147Z" fill="white"/>
<path d="M87.1273 7.72147H84.1274V22.747H101.553V20.1906H87.1273V7.72147Z" fill="white"/>
<path d="M114.179 7.53885C113.448 7.53885 112.796 7.90405 112.352 8.53012L102.257 22.747H105.857L114.179 10.9561L120.7 20.1906H110.605V22.747H126.1L116.005 8.53012C115.561 7.90405 114.883 7.53885 114.179 7.53885Z" fill="white"/>
<path d="M61.3022 7.72147H57.1806L50.4243 13.3039L43.6941 7.72147H39.5725L48.3635 15.0256L39.0508 22.747H43.1724L50.4243 16.7211L57.6762 22.747H61.8239L52.4851 15.0256L61.3022 7.72147Z" fill="white"/>
<path d="M37.8247 30.2598H38.8421L42.7289 41.4246L46.2244 30.2598H47.1374L50.6591 41.4246L54.572 30.2598H55.5893L51.1547 42.8071H50.1895L46.694 31.6684L43.1985 42.8071H42.2333L37.8247 30.2598Z" fill="white"/>
<path d="M56.7893 29.6598H57.7284V35.2422C58.1718 33.8075 59.3196 32.7379 61.2239 32.7379C64.0412 32.7379 65.4498 34.3814 65.4498 37.5378V42.8071H64.5107V37.5639C64.5107 34.9031 63.4412 33.5988 61.0935 33.5988C58.7457 33.5988 57.7023 35.19 57.7023 37.903V42.8071H56.7632V29.6598H56.7893Z" fill="white"/>
<path d="M67.6932 30.6772C67.6932 30.3119 67.9802 30.0511 68.3193 30.0511C68.6584 30.0511 68.9715 30.3119 68.9715 30.6772C68.9715 31.0424 68.6845 31.3032 68.3193 31.3032C67.9541 31.3032 67.6932 31.0163 67.6932 30.6772ZM67.8498 32.8684H68.7628V42.8071H67.8498V32.8684Z" fill="white"/>
<path d="M71.9974 38.7117V33.7031H70.4844V32.8945H71.9974V31.0163L72.9626 30.8076V32.8945H76.1973V33.7031H72.9626V38.6595C72.9626 41.2681 73.5626 42.1028 75.3625 42.1028C75.5451 42.1028 75.7538 42.1028 76.1712 42.0246L76.3277 42.8332C75.9625 42.9115 75.5712 42.9115 75.3104 42.9115C72.9626 42.9115 71.9974 41.7637 71.9974 38.6856V38.7117Z" fill="white"/>
<path d="M77.0842 37.8508C77.0842 34.7987 79.0667 32.6858 81.9884 32.6858C84.91 32.6858 86.8925 34.7726 86.7099 37.903H78.0233C78.0233 40.5116 79.6145 42.1028 82.0927 42.1028C83.8144 42.1028 84.91 41.4246 85.6404 40.1724L86.5013 40.4594C85.6404 42.0767 84.2057 42.9897 82.0927 42.9897C79.0667 42.9897 77.0842 40.9289 77.0842 37.8247V37.8508ZM85.7708 37.0682C85.6665 34.9292 84.2318 33.5727 81.9884 33.5727C79.745 33.5727 78.3363 34.9292 78.0755 37.0682H85.7708Z" fill="white"/>
<path d="M88.9533 32.8684H89.8924V35.3466C90.5446 33.4944 92.0837 32.6336 93.9097 32.6336C96.3096 32.6336 98.6573 34.2249 98.6573 37.8247C98.6573 41.4246 96.2835 42.9898 93.8575 42.9898C92.0576 42.9898 90.5185 42.1028 89.8663 40.2768V46.0418H88.9272V32.8945L88.9533 32.8684ZM97.7443 37.8247C97.7443 35.1639 96.2313 33.5205 93.8314 33.5205C91.4315 33.5205 89.8924 35.1379 89.8924 37.8247C89.8924 40.5116 91.4315 42.1028 93.8053 42.1028C96.1792 42.1028 97.7443 40.4594 97.7443 37.8247Z" fill="white"/>
<path d="M100.562 37.8508C100.562 34.3031 102.883 32.6858 105.309 32.6858C107.109 32.6858 108.674 33.5466 109.327 35.4248V32.8684H110.266V42.7811H109.327V40.3029C108.674 42.155 107.109 43.0158 105.335 43.0158C102.883 43.0158 100.536 41.3985 100.536 37.8247L100.562 37.8508ZM109.353 37.8508C109.353 35.2422 107.761 33.5727 105.414 33.5727C103.066 33.5727 101.501 35.19 101.501 37.8508C101.501 40.5116 103.04 42.155 105.466 42.155C107.892 42.155 109.379 40.5116 109.379 37.8508H109.353Z" fill="white"/>
<path d="M113.005 32.8684H113.944V35.3466C114.596 33.4944 116.135 32.6336 117.961 32.6336C120.361 32.6336 122.709 34.2249 122.709 37.8247C122.709 41.4246 120.335 42.9898 117.909 42.9898C116.109 42.9898 114.57 42.1028 113.918 40.2768V46.0418H112.979V32.8945L113.005 32.8684ZM121.796 37.8247C121.796 35.1639 120.283 33.5205 117.883 33.5205C115.483 33.5205 113.944 35.1379 113.944 37.8247C113.944 40.5116 115.483 42.1028 117.857 42.1028C120.23 42.1028 121.796 40.4594 121.796 37.8247Z" fill="white"/>
<path d="M124.639 37.8508C124.639 34.7987 126.622 32.6858 129.543 32.6858C132.465 32.6858 134.447 34.7726 134.265 37.903H125.578C125.578 40.5116 127.169 42.1028 129.648 42.1028C131.369 42.1028 132.465 41.4246 133.195 40.1724L134.056 40.4594C133.195 42.0767 131.76 42.9897 129.648 42.9897C126.622 42.9897 124.639 40.9289 124.639 37.8247V37.8508ZM133.326 37.0682C133.221 34.9292 131.787 33.5727 129.543 33.5727C127.3 33.5727 125.891 34.9292 125.63 37.0682H133.326Z" fill="white"/>
<path d="M136.482 32.8684H137.421V34.7726C137.865 33.4944 138.908 32.4771 141.125 32.8684L140.995 33.7814C138.439 33.3118 137.447 34.9031 137.447 37.4856V42.7811H136.508V32.8423L136.482 32.8684Z" fill="white"/>
</g>
<defs>
<clipPath id="clip0_6_532">
<rect width="242" height="46.0157" fill="white"/>
</clipPath>
</defs>
</svg>
