<svg width="202" height="30" viewBox="0 0 202 30" fill="none" xmlns="http://www.w3.org/2000/svg">
<g clip-path="url(#clip0_6_464)">
<path d="M132.146 7.71428H141.082V8.8085H133.277V14.845H140.717V15.921H133.277V22.6869H132.146V7.71428Z" fill="white"/>
<path d="M143.416 7.71428H144.547V22.7052H143.416V7.71428Z" fill="white"/>
<path d="M147.848 7.71428H149.125L158.809 21.0456V7.71428H159.939V22.7052H158.736L148.96 9.26443V22.7052H147.83V7.71428H147.848Z" fill="white"/>
<path d="M163.24 7.71428H166.559C172.669 7.71428 175.24 9.95744 175.24 15.1915C175.24 20.4255 172.669 22.7052 166.559 22.7052H163.24V7.71428ZM166.577 21.6109C171.793 21.6109 174.091 19.7508 174.091 15.1915C174.091 10.6322 171.793 8.8085 166.559 8.8085H164.389V21.6109H166.577Z" fill="white"/>
<path d="M178.067 7.71428H187.641V8.8085H179.216V14.5167H187.277V15.5745H179.216V21.5927H187.641V22.6869H178.067V7.71428Z" fill="white"/>
<path d="M199.805 22.7052L195.52 17.0152C195.082 17.0334 194.626 17.0517 194.152 17.0517H191.435V22.7052H190.304V7.71428H194.17C198.529 7.71428 201.1 8.66261 201.1 12.3647C201.1 15.2462 199.532 16.4681 196.796 16.8693L201.283 22.6869H199.787L199.805 22.7052ZM194.188 15.9939C197.763 15.9939 199.97 15.4468 199.97 12.383C199.97 9.31914 197.781 8.77203 194.188 8.77203H191.435V15.9757H194.188V15.9939Z" fill="white"/>
<path d="M14.9909 29.9818C23.2701 29.9818 29.9818 23.2701 29.9818 14.9909C29.9818 6.71165 23.2701 0 14.9909 0C6.71165 0 0 6.71165 0 14.9909C0 23.2701 6.71165 29.9818 14.9909 29.9818Z" fill="#00B2FC"/>
<path d="M17.1442 16.0832L16.0867 17.1407L23.3727 24.4267L24.4302 23.3692L17.1442 16.0832Z" fill="white"/>
<path d="M6.62134 5.56044L5.5639 6.61787L12.8499 13.9039L13.9073 12.8464L6.62134 5.56044Z" fill="white"/>
<path d="M23.3646 5.57458L16.0837 12.8657L17.1419 13.9224L24.4228 6.63128L23.3646 5.57458Z" fill="white"/>
<path d="M12.8522 16.0974L5.57129 23.3885L6.62946 24.4452L13.9104 17.1541L12.8522 16.0974Z" fill="white"/>
<path d="M74.9179 7.71428H63.0456V10.2675H74.079C77.3982 10.2675 78.9483 11.0699 78.9483 12.8936C78.9483 14.7173 77.3982 15.5198 74.079 15.5198H63.0456V22.7234H66.0547V18.0729H74.9179C79.2219 18.0729 81.9027 16.1216 81.9027 12.9118C81.9027 9.70212 79.2219 7.75075 74.9179 7.75075V7.71428Z" fill="white"/>
<path d="M87.0274 7.71428H84.0182V22.7052H101.416V20.152H87.0274V7.71428Z" fill="white"/>
<path d="M110.462 20.1884V22.7052H125.945L115.878 8.51671C115.441 7.87841 114.766 7.51367 114.055 7.51367C113.343 7.51367 112.669 7.87841 112.231 8.51671L102.164 22.7052H105.757L114.073 10.9422L120.584 20.1702H110.498L110.462 20.1884Z" fill="white"/>
<path d="M61.2219 7.71428H57.1003L50.3708 13.2948L43.6231 7.71428H39.5198L48.31 14.9909L38.9909 22.7052H43.1307L50.3708 16.7052L57.6109 22.7052H61.7325L52.4316 14.9909L61.2219 7.71428Z" fill="white"/>
</g>
<defs>
<clipPath id="clip0_6_464">
<rect width="201.301" height="30" fill="white"/>
</clipPath>
</defs>
</svg>
