<svg width="208" height="30" viewBox="0 0 208 30" fill="none" xmlns="http://www.w3.org/2000/svg">
<g clip-path="url(#clip0_6_402)">
<path d="M132.146 7.71429H141.082V8.80851H133.277V14.845H140.717V15.921H133.277V22.6869H132.146V7.71429Z" fill="white"/>
<path d="M151.824 19.1125H142.979L141.392 22.7234H140.152L146.863 7.73252H147.939L154.669 22.7234H153.429L151.842 19.1125H151.824ZM151.368 18.0547L147.392 9.06383L143.435 18.0547H151.368Z" fill="white"/>
<path d="M155.562 15.6474V7.71429H156.693V15.6474C156.693 20.0608 158.28 21.8115 161.599 21.8115C164.918 21.8115 166.523 20.0608 166.523 15.6474V7.71429H167.653V15.6474C167.653 20.6079 165.538 22.9058 161.581 22.9058C157.623 22.9058 155.544 20.6079 155.544 15.6474H155.562Z" fill="white"/>
<path d="M170.316 15.2462C170.316 9.92097 173.708 7.53191 177.228 7.53191C179.818 7.53191 182.626 8.79027 183.647 12.3283L182.553 12.6018C181.805 10.0851 179.836 8.62614 177.228 8.62614C173.745 8.62614 171.447 11.2158 171.447 15.2462C171.447 19.2766 173.653 21.848 177.228 21.848C179.891 21.848 181.86 20.3526 182.571 17.7082L183.684 17.9818C182.717 21.6474 179.854 22.9422 177.228 22.9422C173.708 22.9422 170.316 20.6991 170.316 15.2462Z" fill="white"/>
<path d="M186.31 7.71429H195.866V8.80851H187.441V14.5167H195.501V15.5745H187.441V21.5927H195.866V22.6869H186.31V7.71429Z" fill="white"/>
<path d="M202.176 8.80851H197.544V7.71429H207.939V8.80851H203.325V22.7052H202.195V8.80851H202.176Z" fill="white"/>
<path d="M14.9909 29.9818C23.2701 29.9818 29.9818 23.2701 29.9818 14.9909C29.9818 6.71165 23.2701 0 14.9909 0C6.71165 0 0 6.71165 0 14.9909C0 23.2701 6.71165 29.9818 14.9909 29.9818Z" fill="#00B2FC"/>
<path d="M17.1442 16.0832L16.0867 17.1407L23.3727 24.4267L24.4302 23.3692L17.1442 16.0832Z" fill="white"/>
<path d="M6.62134 5.56044L5.5639 6.61788L12.8499 13.9039L13.9073 12.8464L6.62134 5.56044Z" fill="white"/>
<path d="M23.3646 5.57458L16.0837 12.8657L17.1419 13.9224L24.4228 6.63128L23.3646 5.57458Z" fill="white"/>
<path d="M12.8522 16.0974L5.57129 23.3885L6.62946 24.4452L13.9104 17.1541L12.8522 16.0974Z" fill="white"/>
<path d="M74.9179 7.71429H63.0456V10.2675H74.079C77.3982 10.2675 78.9483 11.0699 78.9483 12.8936C78.9483 14.7173 77.3982 15.5198 74.079 15.5198H63.0456V22.7234H66.0547V18.0729H74.9179C79.2219 18.0729 81.9027 16.1216 81.9027 12.9119C81.9027 9.70213 79.2219 7.75076 74.9179 7.75076V7.71429Z" fill="white"/>
<path d="M87.0274 7.71429H84.0182V22.7052H101.416V20.152H87.0274V7.71429Z" fill="white"/>
<path d="M110.462 20.1884V22.7052H125.945L115.878 8.51672C115.441 7.87842 114.766 7.51368 114.055 7.51368C113.343 7.51368 112.669 7.87842 112.231 8.51672L102.164 22.7052H105.757L114.073 10.9422L120.584 20.1702H110.498L110.462 20.1884Z" fill="white"/>
<path d="M61.2219 7.71429H57.1003L50.3708 13.2948L43.6231 7.71429H39.5198L48.31 14.9909L38.9909 22.7052H43.1307L50.3708 16.7052L57.6109 22.7052H61.7325L52.4316 14.9909L61.2219 7.71429Z" fill="white"/>
</g>
<defs>
<clipPath id="clip0_6_402">
<rect width="207.921" height="30" fill="white"/>
</clipPath>
</defs>
</svg>
