<svg width="235" height="30" viewBox="0 0 235 30" fill="none" xmlns="http://www.w3.org/2000/svg">
<g clip-path="url(#clip0_6_335)">
<path d="M143.617 19.0942H134.772L133.185 22.7052H131.945L138.657 7.71429H139.733L146.462 22.7052H145.222L143.635 19.0942H143.617ZM143.161 18.0365L139.185 9.0456L135.228 18.0365H143.161Z" fill="white"/>
<path d="M146.809 15.2462C146.809 9.92098 150.201 7.53192 153.72 7.53192C156.31 7.53192 159.119 8.79028 160.14 12.3283L159.046 12.6018C158.298 10.0851 156.328 8.62615 153.72 8.62615C150.237 8.62615 147.939 11.2158 147.939 15.2462C147.939 19.2766 150.146 21.848 153.72 21.848C156.383 21.848 158.353 20.3526 159.064 17.7082L160.176 17.9818C159.21 21.6474 156.347 22.9423 153.72 22.9423C150.201 22.9423 146.809 20.6991 146.809 15.2462Z" fill="white"/>
<path d="M172.158 19.0942H163.313L161.708 22.7052H160.468L167.179 7.71429H168.255L174.985 22.7052H173.745L172.14 19.0942H172.158ZM171.702 18.0365L167.726 9.0456L163.769 18.0365H171.702Z" fill="white"/>
<path d="M176.426 7.71429H179.745C185.854 7.71429 188.426 9.95746 188.426 15.1915C188.426 20.4255 185.854 22.7052 179.745 22.7052H176.426V7.71429ZM179.763 21.611C184.979 21.611 187.277 19.7508 187.277 15.1915C187.277 10.6322 184.979 8.80852 179.745 8.80852H177.574V21.611H179.763Z" fill="white"/>
<path d="M191.271 7.71429H200.827V8.80852H192.401V14.5167H200.462V15.5745H192.401V21.5927H200.827V22.6869H191.271V7.71429Z" fill="white"/>
<path d="M205.495 7.71429H206.827L211.915 21.4833L217.003 7.71429H218.334L221.435 22.7052H220.267L217.495 9.37387L212.553 22.7052H211.258L206.334 9.37387L203.562 22.7052H202.395L205.495 7.71429Z" fill="white"/>
<path d="M227.143 18.3647L220.723 7.73253H222.073L227.708 17.1793L233.416 7.73253H234.766L228.292 18.3647V22.7052H227.161V18.3647H227.143Z" fill="white"/>
<path d="M14.9909 29.9818C23.2701 29.9818 29.9818 23.2701 29.9818 14.9909C29.9818 6.71165 23.2701 0 14.9909 0C6.71165 0 0 6.71165 0 14.9909C0 23.2701 6.71165 29.9818 14.9909 29.9818Z" fill="#00B2FC"/>
<path d="M17.1442 16.0832L16.0867 17.1407L23.3727 24.4267L24.4302 23.3692L17.1442 16.0832Z" fill="white"/>
<path d="M6.62134 5.56044L5.5639 6.61787L12.8499 13.9039L13.9073 12.8464L6.62134 5.56044Z" fill="white"/>
<path d="M23.3646 5.57458L16.0837 12.8657L17.1419 13.9224L24.4228 6.63128L23.3646 5.57458Z" fill="white"/>
<path d="M12.8522 16.0974L5.57129 23.3885L6.62946 24.4452L13.9104 17.1541L12.8522 16.0974Z" fill="white"/>
<path d="M74.9179 7.71428H63.0456V10.2675H74.079C77.3982 10.2675 78.9483 11.0699 78.9483 12.8936C78.9483 14.7173 77.3982 15.5198 74.079 15.5198H63.0456V22.7234H66.0547V18.0729H74.9179C79.2219 18.0729 81.9027 16.1216 81.9027 12.9118C81.9027 9.70212 79.2219 7.75075 74.9179 7.75075V7.71428Z" fill="white"/>
<path d="M87.0274 7.71428H84.0182V22.7052H101.416V20.152H87.0274V7.71428Z" fill="white"/>
<path d="M110.462 20.1884V22.7052H125.945L115.878 8.51671C115.441 7.87841 114.766 7.51367 114.055 7.51367C113.343 7.51367 112.669 7.87841 112.231 8.51671L102.164 22.7052H105.757L114.073 10.9422L120.584 20.1702H110.498L110.462 20.1884Z" fill="white"/>
<path d="M61.2219 7.71428H57.1003L50.3708 13.2948L43.6231 7.71428H39.5198L48.31 14.9909L38.9909 22.7052H43.1307L50.3708 16.7052L57.6109 22.7052H61.7325L52.4316 14.9909L61.2219 7.71428Z" fill="white"/>
</g>
<defs>
<clipPath id="clip0_6_335">
<rect width="234.766" height="30" fill="white"/>
</clipPath>
</defs>
</svg>
