<svg width="190" height="30" viewBox="0 0 190 30" fill="none" xmlns="http://www.w3.org/2000/svg">
<g clip-path="url(#clip0_6_423)">
<path d="M132.146 7.71428H135.465C141.574 7.71428 144.146 9.95744 144.146 15.1915C144.146 20.4255 141.574 22.7052 135.465 22.7052H132.146V7.71428ZM135.483 21.6109C140.699 21.6109 142.997 19.7508 142.997 15.1915C142.997 10.6322 140.699 8.80851 135.465 8.80851H133.295V21.6109H135.483Z" fill="white"/>
<path d="M146.571 15.228C146.571 9.8845 149.891 7.55015 153.593 7.55015C157.295 7.55015 160.596 9.8845 160.596 15.228C160.596 20.5714 157.277 22.924 153.556 22.924C149.836 22.924 146.571 20.6626 146.571 15.228ZM159.447 15.228C159.447 11.1246 157.185 8.64438 153.593 8.64438C150 8.64438 147.684 11.1064 147.684 15.228C147.684 19.3495 149.854 21.8298 153.538 21.8298C157.222 21.8298 159.447 19.4043 159.447 15.228Z" fill="white"/>
<path d="M163.021 15.2462C163.021 9.92097 166.413 7.53191 169.933 7.53191C172.523 7.53191 175.331 8.79027 176.353 12.3283L175.258 12.6018C174.511 10.0851 172.541 8.62614 169.933 8.62614C166.45 8.62614 164.152 11.2158 164.152 15.2462C164.152 19.2766 166.359 21.848 169.933 21.848C172.596 21.848 174.565 20.3526 175.277 17.7082L176.389 17.9818C175.422 21.6474 172.559 22.9422 169.933 22.9422C166.413 22.9422 163.021 20.6991 163.021 15.2462Z" fill="white"/>
<path d="M177.994 19.4225L179.033 19.0942C179.854 20.8815 181.842 21.8845 184.304 21.8845C186.948 21.8845 188.827 20.6444 188.827 18.766C188.827 14.152 178.596 17.2158 178.596 11.4711C178.596 9.15501 180.857 7.51368 183.793 7.51368C186.729 7.51368 188.754 8.6079 189.739 10.7599L188.699 11.0699C187.878 9.37386 186.182 8.57143 183.812 8.57143C181.441 8.57143 179.708 9.70213 179.708 11.4711C179.708 16.1581 189.921 12.9483 189.921 18.7842C189.921 21.2644 187.587 22.924 184.322 22.924C181.313 22.924 178.942 21.6657 177.994 19.4225Z" fill="white"/>
<path d="M14.9909 29.9818C23.2701 29.9818 29.9818 23.2701 29.9818 14.9909C29.9818 6.71165 23.2701 0 14.9909 0C6.71165 0 0 6.71165 0 14.9909C0 23.2701 6.71165 29.9818 14.9909 29.9818Z" fill="#00B2FC"/>
<path d="M17.1442 16.0832L16.0867 17.1407L23.3727 24.4267L24.4302 23.3692L17.1442 16.0832Z" fill="white"/>
<path d="M6.62134 5.56044L5.5639 6.61788L12.8499 13.9039L13.9073 12.8464L6.62134 5.56044Z" fill="white"/>
<path d="M23.3646 5.57458L16.0837 12.8657L17.1419 13.9224L24.4228 6.63128L23.3646 5.57458Z" fill="white"/>
<path d="M12.8522 16.0974L5.57129 23.3885L6.62946 24.4452L13.9104 17.1541L12.8522 16.0974Z" fill="white"/>
<path d="M74.9179 7.71428H63.0456V10.2675H74.079C77.3982 10.2675 78.9483 11.0699 78.9483 12.8936C78.9483 14.7173 77.3982 15.5198 74.079 15.5198H63.0456V22.7234H66.0547V18.0729H74.9179C79.2219 18.0729 81.9027 16.1216 81.9027 12.9119C81.9027 9.70212 79.2219 7.75076 74.9179 7.75076V7.71428Z" fill="white"/>
<path d="M87.0273 7.71428H84.0182V22.7052H101.416V20.152H87.0273V7.71428Z" fill="white"/>
<path d="M110.462 20.1884V22.7052H125.945L115.878 8.51672C115.441 7.87842 114.766 7.51368 114.055 7.51368C113.343 7.51368 112.669 7.87842 112.231 8.51672L102.164 22.7052H105.757L114.073 10.9422L120.584 20.1702H110.498L110.462 20.1884Z" fill="white"/>
<path d="M61.2219 7.71428H57.1003L50.3708 13.2948L43.6231 7.71428H39.5198L48.31 14.9909L38.9909 22.7052H43.1307L50.3708 16.7052L57.6109 22.7052H61.7325L52.4316 14.9909L61.2219 7.71428Z" fill="white"/>
</g>
<defs>
<clipPath id="clip0_6_423">
<rect width="189.921" height="30" fill="white"/>
</clipPath>
</defs>
</svg>
