<svg width="242" height="44" viewBox="0 0 242 44" fill="none" xmlns="http://www.w3.org/2000/svg">
<g clip-path="url(#clip0_6_499)">
<path d="M15.0255 30.0511C23.3239 30.0511 30.0511 23.3239 30.0511 15.0255C30.0511 6.72717 23.3239 0 15.0255 0C6.72717 0 0 6.72717 0 15.0255C0 23.3239 6.72717 30.0511 15.0255 30.0511Z" fill="#00B2FC"/>
<path d="M17.1659 16.1001L16.1145 17.1515L23.419 24.456L24.4704 23.4046L17.1659 16.1001Z" fill="white"/>
<path d="M6.6182 5.58746L5.5668 6.63885L12.8713 13.9433L13.9227 12.8919L6.6182 5.58746Z" fill="white"/>
<path d="M23.4194 5.56059L16.1201 12.8701L17.1722 13.9208L24.4715 6.61126L23.4194 5.56059Z" fill="white"/>
<path d="M12.865 16.1083L5.56561 23.4178L6.61775 24.4685L13.9171 17.1589L12.865 16.1083Z" fill="white"/>
<path d="M129.1 15.4168C129.1 19.4601 132.778 22.747 137.317 22.747H149.812V14.5038H140.421V16.1211H147.725V21.1297H137.343C133.821 21.1297 131.187 18.6776 131.187 15.4168C131.187 12.1561 133.847 9.70397 137.343 9.70397H149.838V8.08664H137.343C132.804 8.08664 129.126 11.3735 129.126 15.4168H129.1Z" fill="white"/>
<path d="M201.932 22.747H220.401V21.1297H204.019V9.70397H220.401V8.08664H201.932V22.747Z" fill="white"/>
<path d="M219.931 14.5038H208.297V16.1211H219.931V14.5038Z" fill="white"/>
<path d="M162.49 7.87798C161.916 7.87798 161.368 8.19101 161.003 8.71273L151.064 22.7209H153.412L162.49 9.8866L170.446 21.0775H159.281V22.6948H173.942L163.977 8.66056C163.612 8.13884 163.064 7.82581 162.49 7.82581V7.87798Z" fill="white"/>
<path d="M193.976 7.87796C193.402 7.87796 192.958 8.16491 192.724 8.68663L187.272 20.6601L181.82 8.68663C181.559 8.16491 181.115 7.87796 180.541 7.87796C179.967 7.87796 179.498 8.26925 179.289 8.9214L174.437 22.7209H176.524L180.802 10.5126L185.915 22.0688C186.228 22.7992 186.645 22.9296 187.219 22.9296C187.767 22.9296 188.211 22.7731 188.524 22.0688L193.61 10.5126L197.862 22.7209H200.002L195.228 8.9214C195.045 8.45185 194.68 7.87796 193.95 7.87796H193.976Z" fill="white"/>
<path d="M236.392 14.5038H228.748C225.227 14.5038 224.835 12.8343 224.835 12.1039C224.835 11.3735 225.227 9.70397 228.748 9.70397H241.009V8.08664H228.748C225.07 8.08664 222.775 9.59963 222.775 11.9995C222.775 14.6081 224.809 16.095 228.357 16.095H236C237.878 16.095 239.913 16.7472 239.913 18.5993C239.913 20.1645 238.452 21.1036 236 21.1036H223.009V22.7209H236C239.678 22.7209 241.974 21.1818 241.974 18.7037C241.974 16.0168 239.939 14.4777 236.392 14.4777V14.5038Z" fill="white"/>
<path d="M75.0234 7.72144H63.1282V10.2779H74.1626C77.5016 10.2779 79.0406 11.0865 79.0406 12.9126C79.0406 14.7386 77.5016 15.5472 74.1626 15.5472H63.1282V22.7731H66.1542V18.1037H75.0234C79.3537 18.1037 82.0145 16.1472 82.0145 12.9386C82.0145 9.73006 79.3276 7.77361 75.0234 7.77361V7.72144Z" fill="white"/>
<path d="M87.1273 7.72144H84.1274V22.747H101.553V20.1906H87.1273V7.72144Z" fill="white"/>
<path d="M114.179 7.53885C113.448 7.53885 112.796 7.90405 112.352 8.53012L102.257 22.747H105.857L114.179 10.9561L120.7 20.1906H110.605V22.747H126.1L116.005 8.53012C115.561 7.90405 114.883 7.53885 114.179 7.53885Z" fill="white"/>
<path d="M61.3022 7.72128H57.1806L50.4243 13.3037L43.6941 7.72128H39.5725L48.3635 15.0254L39.0508 22.7468H43.1724L50.4243 16.721L57.6762 22.7468H61.8239L52.4851 15.0254L61.3022 7.72128Z" fill="white"/>
<path d="M39.0247 36.4943C39.0247 32.6597 41.3985 30.0511 44.868 30.0511C47.1374 30.0511 48.9113 30.9641 49.9026 32.8162L48.9895 33.1031C48.0765 31.6162 46.7722 30.938 44.868 30.938C41.9202 30.938 39.9638 33.1292 39.9638 36.4682C39.9638 39.8073 41.842 42.0246 44.8158 42.0246C47.7896 42.0246 49.5634 40.2507 49.6678 37.1204H44.894V36.2074H50.633V36.9117C50.633 40.642 48.4157 42.9376 44.7897 42.9376C41.1637 42.9376 38.9986 40.4072 38.9986 36.4682L39.0247 36.4943Z" fill="white"/>
<path d="M52.7198 37.8508C52.7198 34.3031 55.0415 32.6858 57.4675 32.6858C59.2674 32.6858 60.8326 33.5466 61.4847 35.4248V32.8684H62.4238V42.7811H61.4847V40.3029C60.8326 42.155 59.2674 43.0158 57.4936 43.0158C55.0415 43.0158 52.6938 41.3985 52.6938 37.8247L52.7198 37.8508ZM61.5108 37.8508C61.5108 35.2422 59.9196 33.5727 57.5718 33.5727C55.2241 33.5727 53.6589 35.19 53.6589 37.8508C53.6589 40.5116 55.198 42.155 57.624 42.155C60.05 42.155 61.5369 40.5116 61.5369 37.8508H61.5108Z" fill="white"/>
<path d="M65.1629 32.8684H66.102V35.2944C66.4411 33.7814 67.615 32.7118 69.3105 32.7118C71.2148 32.7118 72.1278 33.6509 72.5974 35.5291C73.0148 33.677 74.2669 32.6858 76.2494 32.6858C78.9102 32.6858 79.8493 34.4857 79.8493 38.0334V42.8071H78.9102V38.0595C78.9102 35.0335 78.1537 33.5727 75.9886 33.5727C73.8234 33.5727 72.9104 35.0335 72.9104 38.0856V42.8071H71.9713V38.1117C71.9713 35.0857 71.3713 33.6249 69.2062 33.6249C67.0411 33.6249 66.1281 35.2161 66.1281 38.3203V42.8332H65.189V32.8944L65.1629 32.8684Z" fill="white"/>
<path d="M81.8058 37.8508C81.8058 34.7987 83.7883 32.6858 86.7099 32.6858C89.6316 32.6858 91.6141 34.7726 91.4315 37.903H82.7448C82.7448 40.5116 84.3361 42.1028 86.8143 42.1028C88.5359 42.1028 89.6316 41.4246 90.362 40.1724L91.2228 40.4594C90.362 42.0767 88.9272 42.9897 86.8143 42.9897C83.7883 42.9897 81.8058 40.9289 81.8058 37.8247V37.8508ZM90.4924 37.0682C90.3881 34.9292 88.9533 33.5727 86.7099 33.5727C84.4665 33.5727 83.0579 34.9292 82.797 37.0682H90.4924Z" fill="white"/>
<path d="M98.9443 30.2337H99.9095V41.8681H106.144V42.7811H98.9443V30.2076V30.2337Z" fill="white"/>
<path d="M106.718 37.8508C106.718 34.3031 109.04 32.6858 111.466 32.6858C113.266 32.6858 114.831 33.5466 115.483 35.4248V32.8684H116.422V42.7811H115.483V40.3029C114.831 42.155 113.266 43.0158 111.492 43.0158C109.04 43.0158 106.692 41.3985 106.692 37.8247L106.718 37.8508ZM115.509 37.8508C115.509 35.2422 113.918 33.5727 111.57 33.5727C109.222 33.5727 107.657 35.19 107.657 37.8508C107.657 40.5116 109.196 42.155 111.622 42.155C114.048 42.155 115.535 40.5116 115.535 37.8508H115.509Z" fill="white"/>
<path d="M118.874 38.1638V32.8945H119.813V38.1378C119.813 40.7985 120.883 42.1028 123.23 42.1028C125.578 42.1028 126.595 40.5116 126.595 37.7986V32.8945H127.535V42.8332H126.595V40.4855C126.152 41.9463 125.004 42.9898 123.1 42.9898C120.257 42.9898 118.874 41.3203 118.874 38.1899V38.1638Z" fill="white"/>
<path d="M130.274 32.8684H131.213V35.2161C131.656 33.7553 132.804 32.7119 134.708 32.7119C137.552 32.7119 138.934 34.3814 138.934 37.5117V42.7811H137.995V37.5378C137.995 34.877 136.926 33.5727 134.578 33.5727C132.23 33.5727 131.187 35.1639 131.187 37.8769V42.7811H130.247V32.8423L130.274 32.8684Z" fill="white"/>
<path d="M140.917 37.8508C140.917 34.8509 142.899 32.6858 145.717 32.6858C147.882 32.6858 149.395 33.7031 150.203 35.6596L149.342 35.9465C148.664 34.3553 147.438 33.5727 145.743 33.5727C143.473 33.5727 141.882 35.3205 141.882 37.8508C141.882 40.3811 143.473 42.1289 145.743 42.1289C147.438 42.1289 148.716 41.2941 149.342 39.7551L150.203 40.042C149.447 41.9463 147.856 43.0158 145.717 43.0158C142.925 43.0158 140.917 40.8507 140.917 37.8508Z" fill="white"/>
<path d="M152.473 29.6598H153.412V35.2422C153.855 33.8075 155.003 32.7379 156.907 32.7379C159.725 32.7379 161.133 34.3814 161.133 37.5378V42.8071H160.194V37.5639C160.194 34.9031 159.125 33.5988 156.777 33.5988C154.429 33.5988 153.386 35.19 153.386 37.903V42.8071H152.447V29.6598H152.473Z" fill="white"/>
<path d="M163.116 37.8508C163.116 34.7987 165.098 32.6858 168.02 32.6858C170.942 32.6858 172.924 34.7726 172.742 37.903H164.055C164.055 40.5116 165.646 42.1028 168.124 42.1028C169.846 42.1028 170.942 41.4246 171.672 40.1724L172.533 40.4594C171.672 42.0767 170.237 42.9897 168.124 42.9897C165.098 42.9897 163.116 40.9289 163.116 37.8247V37.8508ZM171.803 37.0682C171.698 34.9292 170.263 33.5727 168.02 33.5727C165.777 33.5727 164.368 34.9292 164.107 37.0682H171.803Z" fill="white"/>
<path d="M174.959 32.8684H175.898V34.7726C176.341 33.4944 177.385 32.4771 179.602 32.8684L179.472 33.7814C176.915 33.3118 175.924 34.9031 175.924 37.4856V42.7811H174.985V32.8423L174.959 32.8684Z" fill="white"/>
</g>
<defs>
<clipPath id="clip0_6_499">
<rect width="242" height="43.0419" fill="white"/>
</clipPath>
</defs>
</svg>
